<?xml version="1.0" encoding="UTF-8"?>
<svg width="1400" height="420" viewBox="0 0 1400 420" fill="none" xmlns="http://www.w3.org/2000/svg" role="img" aria-label="Keynvest LLC logo">
  <defs>
    <linearGradient id="kvG" x1="92" y1="72" x2="420" y2="460" gradientUnits="userSpaceOnUse">
      <stop stop-color="#D7B56D"/>
      <stop offset="1" stop-color="#6DD7C5"/>
    </linearGradient>
    <filter id="kvShadow" x="-20%" y="-20%" width="140%" height="140%">
      <feDropShadow dx="0" dy="18" stdDeviation="18" flood-color="#000" flood-opacity=".35"/>
    </filter>
  </defs>

  <g transform="translate(0,0)">
    <rect x="34" y="34" width="352" height="352" rx="96"
          fill="rgba(255,255,255,0.04)" stroke="rgba(233,238,246,0.18)" stroke-width="4"
          filter="url(#kvShadow)"/>
    <path d="M104 204L210 126L316 204" stroke="rgba(215,181,109,0.85)" stroke-width="16" stroke-linecap="round" stroke-linejoin="round"/>
    <path d="M210 164c-40.9 0-74 33.1-74 74 0 33 21.5 60.9 51.3 70.7V338h45.4v-29.3c29.8-9.8 51.3-37.7 51.3-70.7 0-40.9-33.1-74-74-74Z"
          stroke="url(#kvG)" stroke-width="20" stroke-linecap="round" stroke-linejoin="round"/>
    <path d="M210 164v-36" stroke="url(#kvG)" stroke-width="20" stroke-linecap="round"/>
    <path d="M142 338v-46M176 338v-70M210 338v-58M244 338v-84M278 338v-52"
          stroke="rgba(233,238,246,0.42)" stroke-width="16" stroke-linecap="round"/>
  </g>

  <g transform="translate(430,120)">
    <text x="0" y="86" font-family="system-ui, -apple-system, Segoe UI, Roboto, Helvetica, Arial" font-size="92" font-weight="860" fill="#E9EEF6" letter-spacing="0.5">
      Keynvest
    </text>
    <text x="520" y="86" font-family="system-ui, -apple-system, Segoe UI, Roboto, Helvetica, Arial" font-size="44" font-weight="800" fill="rgba(233,238,246,0.70)" letter-spacing="2">
      LLC
    </text>
    <rect x="0" y="112" width="820" height="4" rx="2" fill="rgba(233,238,246,0.14)"/>
    <text x="0" y="162" font-family="system-ui, -apple-system, Segoe UI, Roboto, Helvetica, Arial" font-size="36" font-weight="700" fill="rgba(183,194,211,0.95)" letter-spacing="1">
      Las Vegas • Real Estate Investing
    </text>
  </g>
</svg>
