<?xml version="1.0" encoding="UTF-8"?>
<svg width="256" height="256" viewBox="0 0 256 256" fill="none" xmlns="http://www.w3.org/2000/svg" role="img" aria-label="Keynvest logo">
  <defs>
    <linearGradient id="g" x1="40" y1="30" x2="210" y2="226" gradientUnits="userSpaceOnUse">
      <stop stop-color="#D7B56D"/>
      <stop offset="1" stop-color="#6DD7C5"/>
    </linearGradient>
  </defs>

  <!-- Badge -->
  <rect x="20" y="20" width="216" height="216" rx="56" fill="rgba(255,255,255,0.04)" stroke="rgba(233,238,246,0.18)" stroke-width="2"/>

  <!-- Key + roof mark -->
  <path d="M88 128c0-22.1 17.9-40 40-40s40 17.9 40 40c0 19.2-13.5 35.2-31.5 39v17h-17v-17c-18-3.8-31.5-19.8-31.5-39Z" stroke="url(#g)" stroke-width="10" stroke-linecap="round" stroke-linejoin="round"/>
  <path d="M128 88V66" stroke="url(#g)" stroke-width="10" stroke-linecap="round"/>
  <path d="M110 168l-22 18" stroke="url(#g)" stroke-width="10" stroke-linecap="round"/>
  <path d="M146 168l22 18" stroke="url(#g)" stroke-width="10" stroke-linecap="round"/>

  <!-- Simple roof line -->
  <path d="M74 122l54-38 54 38" stroke="rgba(215,181,109,0.65)" stroke-width="8" stroke-linecap="round" stroke-linejoin="round"/>

  <!-- Las Vegas-ish skyline bars -->
  <path d="M86 196v-22M110 196v-34M128 196v-28M146 196v-40M170 196v-26" stroke="rgba(233,238,246,0.35)" stroke-width="8" stroke-linecap="round"/>
</svg>
