<?xml version="1.0" encoding="UTF-8"?>
<svg width="512" height="512" viewBox="0 0 512 512" fill="none" xmlns="http://www.w3.org/2000/svg" role="img" aria-label="Keynvest logo mark">
  <defs>
    <linearGradient id="kvG" x1="92" y1="72" x2="420" y2="460" gradientUnits="userSpaceOnUse">
      <stop stop-color="#D7B56D"/>
      <stop offset="1" stop-color="#6DD7C5"/>
    </linearGradient>
    <filter id="kvShadow" x="-20%" y="-20%" width="140%" height="140%">
      <feDropShadow dx="0" dy="18" stdDeviation="18" flood-color="#000" flood-opacity=".35"/>
    </filter>
  </defs>

  <rect x="52" y="52" width="408" height="408" rx="108"
        fill="rgba(255,255,255,0.04)" stroke="rgba(233,238,246,0.18)" stroke-width="4"
        filter="url(#kvShadow)"/>

  <path d="M130 240L256 148L382 240" stroke="rgba(215,181,109,0.85)" stroke-width="18" stroke-linecap="round" stroke-linejoin="round"/>

  <path d="M256 196c-48.6 0-88 39.4-88 88 0 39.2 25.6 72.4 61 84v34h54v-34c35.4-11.6 61-44.8 61-84 0-48.6-39.4-88-88-88Z"
        stroke="url(#kvG)" stroke-width="22" stroke-linecap="round" stroke-linejoin="round"/>
  <path d="M256 196v-44" stroke="url(#kvG)" stroke-width="22" stroke-linecap="round"/>

  <path d="M176 404v-56M216 404v-86M256 404v-72M296 404v-102M336 404v-64"
        stroke="rgba(233,238,246,0.42)" stroke-width="18" stroke-linecap="round"/>
</svg>
